<?xml version="1.0" encoding="utf-8"?>
<!-- Generator: Adobe Illustrator 26.0.1, SVG Export Plug-In . SVG Version: 6.00 Build 0)  -->
<svg version="1.1" id="Layer_1" xmlns="http://www.w3.org/2000/svg" xmlns:xlink="http://www.w3.org/1999/xlink" x="0px" y="0px"
	 viewBox="0 0 1200 289.9" style="enable-background:new 0 0 1200 289.9;" xml:space="preserve">
<style type="text/css">
	.st0{fill-rule:evenodd;clip-rule:evenodd;fill:#211E1E;stroke:#FFFFFF;stroke-miterlimit:10;}
</style>
<g>
	<path class="st0" d="M183.1,38.3c1.7,0.6,3.5,0.6,5.8,1.2c1.2,0,2.3,1.2,2.3,2.3c0.6,2.3,1.7,4.6,2.3,7.5c0.6,1.2,0,2.3-1.2,1.7
		c-1.7-0.6-3.5-0.6-5.2-1.2c-1.2,0-1.7-1.2-2.3-2.3c-0.6-2.3-1.7-5.2-2.3-7.5C182,38.8,182.6,37.7,183.1,38.3"/>
	<path class="st0" d="M189.5,26.1c1.7,0.6,4.1,1.2,5.8,1.7c1.2,0,2.3,1.7,2.3,2.9c0.6,1.7,1.7,4.1,2.3,6.4c0.6,1.2,0,1.7-1.2,1.7
		c-1.7-0.6-3.5-1.2-5.8-1.2c-1.2,0-2.3-1.2-2.3-2.9c-0.6-2.3-1.7-4.6-2.3-7.5C187.8,26.7,188.4,25.5,189.5,26.1"/>
	<path class="st0" d="M200.5,29c1.7,0.6,4.1,1.2,5.8,1.7c1.2,0.6,2.3,1.7,2.3,2.9c1.2,2.3,1.7,4.6,2.9,7c0.6,1.2,0,1.7-1.2,1.7
		c-1.7-0.6-4.1-1.2-5.8-1.7c-1.2,0-2.3-1.7-2.3-2.9c-0.6-2.3-1.7-4.6-2.3-7C199.4,29.6,199.9,29,200.5,29"/>
	<path class="st0" d="M235.3,41.7c1.7,0.6,4.1,1.7,5.8,2.9c1.2,0.6,2.3,1.7,2.3,2.9c0.6,2.3,1.2,4.1,2.3,6.4c0.6,1.2,0,1.7-1.2,1.2
		c-1.7-1.2-4.1-1.7-5.8-2.3c-1.2-0.6-2.3-1.7-2.3-2.9c-0.6-2.3-1.2-4.1-2.3-6.4C234.1,41.7,234.7,41.7,235.3,41.7"/>
	<path class="st0" d="M194.2,40.6c1.7,0.6,3.5,0.6,5.8,1.2c1.2,0,2.3,1.2,2.3,2.9c0.6,2.3,1.7,4.6,2.3,7c0.6,1.2,0,1.7-1.2,1.7
		c-1.7-0.6-3.5-1.2-5.2-1.2c-1.2,0-1.7-1.2-2.3-2.3c-0.6-2.3-1.7-4.6-2.3-7.5C193,41.2,193.6,40,194.2,40.6"/>
	<path class="st0" d="M205.2,43.5c1.7,0.6,4.1,1.2,5.8,1.7c1.2,0,2.3,1.2,2.3,2.3c0.6,2.3,1.7,4.6,2.3,7c0.6,1.2,0,1.7-1.2,1.7
		c-1.7-0.6-4.1-1.2-5.8-1.2c-1.2,0-2.3-1.2-2.3-2.3c-0.6-2.3-1.7-4.6-2.3-7C204,43.5,204.6,42.9,205.2,43.5"/>
	<path class="st0" d="M216.7,46.4c1.7,0.6,4.1,1.2,5.8,1.7c1.2,0.6,2.3,1.7,2.3,2.9c0.6,2.3,1.7,4.6,2.3,6.4c0.6,1.2,0,1.7-1.2,1.2
		c-1.7-0.6-4.1-1.2-5.8-1.7c-1.2,0-2.3-1.2-2.3-2.3c-0.6-2.3-1.7-4.6-2.3-7C215,47,215.6,46.4,216.7,46.4"/>
	<path class="st0" d="M228.3,50.4c1.7,0.6,4.1,1.2,5.8,2.3c1.2,0.6,2.3,1.7,2.3,2.9c0.6,2.3,1.2,4.1,2.3,6.4c0.6,1.2,0,1.7-1.2,1.2
		c-1.7-0.6-4.1-1.2-5.8-2.3c-1.2-0.6-2.3-1.7-2.3-2.9c-0.6-2.3-1.7-4.6-2.3-6.4C226.6,50.4,227.2,49.8,228.3,50.4"/>
	<path class="st0" d="M239.9,55.1c1.7,0.6,4.1,1.7,5.8,2.3c1.2,0.6,2.3,1.7,2.3,2.9c0.6,2.3,1.2,4.1,2.3,6.4c0.6,1.2,0,1.7-1.2,1.2
		c-1.7-1.2-4.1-1.7-5.8-2.3c-1.2-0.6-2.3-1.7-2.3-2.9c-0.6-2.3-1.2-4.1-2.3-6.4C238.2,55.1,238.8,54.5,239.9,55.1"/>
	<path class="st0" d="M221.4,60.3c1.7,0.6,4.1,1.2,5.8,1.7c1.2,0.6,2.3,1.7,2.3,2.3c0.6,2.3,1.7,4.6,2.3,6.4c0.6,1.2,0,1.7-1.2,1.7
		c-1.7-0.6-4.1-1.2-5.8-1.7c-1.2,0-2.3-1.2-2.3-2.3c-0.6-2.3-1.7-4.6-2.3-7C219.6,60.3,220.2,59.7,221.4,60.3"/>
	<path class="st0" d="M232.4,63.8c1.7,0.6,4.1,1.2,5.8,2.3c1.2,0.6,2.3,1.7,2.3,2.9c0.6,2.3,1.7,4.1,2.3,6.4c0.6,1.2,0,1.7-1.2,1.2
		c-1.7-0.6-4.1-1.2-5.8-1.7c-1.2-0.6-2.3-1.7-2.3-2.3c-0.6-2.3-1.7-4.6-2.3-6.4C231.2,63.8,231.8,63.2,232.4,63.8"/>
	<path class="st0" d="M215,71.3c1.7,0.6,3.5,0.6,5.8,1.2c1.2,0,2.3,1.2,2.3,2.3c0.6,2.3,1.7,4.6,2.3,7c0.6,1.2,0,1.7-1.2,1.7
		c-1.7-0.6-3.5-0.6-5.2-1.2c-1.2,0-1.7-1.2-2.3-2.3c-0.6-2.3-1.7-4.6-2.3-7C213.3,71.9,213.8,71.3,215,71.3"/>
	<path class="st0" d="M226,73.6c1.7,0.6,4.1,1.2,5.8,1.7c1.2,0,2.3,1.2,2.3,2.3c0.6,2.3,1.7,4.6,2.3,6.4c0.6,1.2,0,1.7-1.2,1.7
		c-1.7-0.6-4.1-1.2-5.8-1.2c-1.2,0-2.3-1.2-2.3-2.3c-0.6-2.3-1.7-4.6-2.3-7C224.3,74.2,224.9,73.6,226,73.6"/>
	<path class="st0" d="M237,77.1c1.7,0.6,4.1,1.2,5.8,1.7c1.2,0.6,2.3,1.7,2.3,2.9c0.6,2.3,1.7,4.1,2.3,6.4c0.6,1.2,0,1.7-1.2,1.2
		c-1.7-0.6-4.1-1.2-5.8-1.7c-1.2-0.6-2.3-1.2-2.3-2.3c-0.6-2.3-1.7-4.6-2.3-6.4C235.9,77.1,235.9,76.5,237,77.1"/>
	<path class="st0" d="M248.6,81.1c1.7,0.6,4.1,1.7,5.8,2.3c1.2,0.6,2.3,1.7,2.3,2.9c0.6,2.3,1.2,4.1,2.3,6.4c0.6,1.2,0,1.7-1.2,1.2
		c-1.7-0.6-4.1-1.7-5.8-2.3c-1.2-0.6-2.3-1.7-2.3-2.9c-0.6-2.3-1.2-4.1-2.3-6.4C246.9,81.1,247.4,80.5,248.6,81.1"/>
	<path class="st0" d="M248.6,48.1c2.3,1.2,4.1,2.3,6.4,3.5c1.2,0.6,2.3,2.3,2.9,2.9c0.6,2.3,1.2,4.1,2.3,6.4c0.6,1.2,0,1.2-1.2,0.6
		c-2.9-1.2-5.2-2.3-7-3.5c-1.2-0.6-2.3-1.7-2.3-2.9c-0.6-2.3-1.2-4.1-2.3-6.4C246.9,48.1,247.4,47.5,248.6,48.1"/>
	<path class="st0" d="M252.7,60.9c2.3,1.2,4.1,2.3,6.4,2.9c1.2,0.6,2.3,2.3,2.9,2.9c0.6,2.3,1.2,4.1,2.3,6.4c0.6,1.2,0,1.2-1.2,0.6
		c-2.3-1.2-4.1-2.3-6.4-2.9c-1.2-0.6-2.3-1.7-2.3-2.9c-1.7-1.7-2.3-4.1-2.9-5.8C250.9,60.9,251.5,60.3,252.7,60.9"/>
	<path class="st0" d="M256.7,73.6c2.3,1.2,4.1,1.7,6.4,2.9c1.2,0.6,2.3,1.7,2.9,2.9c0.6,2.3,1.2,4.1,2.3,6.4c0.6,1.2,0,1.2-1.2,0.6
		c-2.3-1.2-4.1-2.3-6.4-2.9c-1.2-0.6-2.3-1.7-2.3-2.9c-0.6-2.3-1.2-4.1-2.3-6.4C255.6,73.6,256.1,73,256.7,73.6"/>
	<path class="st0" d="M261.4,86.3c2.3,1.2,4.1,1.7,6.4,2.9c1.2,0.6,2.3,1.7,2.9,2.9c0.6,2.3,1.2,4.1,2.3,6.4c0.6,1.2,0,1.2-1.2,0.6
		c-2.3-1.2-4.1-1.7-6.4-2.9c-1.2-0.6-2.3-1.7-2.3-2.9c-0.6-2.3-1.2-4.1-2.3-6.4C259.6,86.3,260.2,85.8,261.4,86.3"/>
	<path class="st0" d="M260.8,55.1c2.3,1.2,4.6,2.9,6.4,4.1c1.2,0.6,2.3,2.3,2.9,3.5c0.6,2.3,1.2,4.1,2.3,6.4c0.6,1.2,0,1.2-1.2,0.6
		c-2.3-1.7-4.6-2.9-6.4-4.1c-1.2-0.6-2.3-2.3-2.9-2.9c-0.6-2.3-1.2-4.1-2.3-6.4C259,54.5,259.6,54.5,260.8,55.1"/>
	<path class="st0" d="M274.1,63.8c2.3,1.7,4.6,4.1,7,5.8c1.2,1.2,2.3,2.9,2.9,3.5c0.6,1.7,1.2,4.1,2.3,6.4c0.6,1.2-0.6,1.2-1.7,0
		c-2.3-1.7-4.6-4.1-7-5.8c-1.2-1.2-2.3-2.3-2.9-3.5c-0.6-2.3-1.2-4.1-2.3-6.4C272.4,63.2,272.9,62.6,274.1,63.8"/>
	<path class="st0" d="M288.6,76.5c2.9,2.9,5.8,6.4,9.3,11c1.7,2.3,16.2,45.8,16.2,45.8s-12.2-34.8-13.3-36.5
		c-2.9-4.1-6.4-7.5-8.7-10.4c-1.2-1.2-2.3-2.9-2.9-4.1c-0.6-1.7-1.2-4.1-1.7-5.8C286.3,74.8,287.4,75.3,288.6,76.5"/>
	<path class="st0" d="M278.2,75.9c2.3,1.7,4.6,3.5,7,5.8c1.2,1.2,2.3,2.9,2.9,3.5c0.6,2.3,1.2,4.1,2.3,6.4c0.6,1.2-0.6,1.2-1.7,0
		c-2.3-1.7-4.6-4.1-7-5.8c-1.2-0.6-2.3-2.3-2.9-3.5c-0.6-2.3-1.2-4.1-2.3-6.4C276.4,75.3,277,75.3,278.2,75.9"/>
	<path class="st0" d="M292.6,88.7c2.9,2.9,5.8,6.4,8.7,10.4c1.7,1.7,12.7,34.2,12.7,34.2s-8.1-23.8-9.8-25.5c-2.9-3.5-5.8-7-8.7-9.3
		c-1.2-1.2-2.3-2.9-2.9-4.1c-0.6-2.3-1.2-4.1-1.7-5.8S291.5,87.5,292.6,88.7"/>
	<path class="st0" d="M269.5,80c2.3,1.2,4.1,2.9,6.4,4.1c1.2,0.6,2.3,2.3,2.9,3.5c0.6,2.3,1.2,4.1,2.3,6.4c0.6,1.2,0,1.2-1.2,0.6
		c-2.3-1.2-4.6-2.9-6.4-4.1c-1.2-0.6-2.3-1.7-2.3-2.9c-0.6-2.3-1.2-4.1-2.3-6.4C267.7,80,268.3,79.4,269.5,80"/>
	<path class="st0" d="M282.2,88.7c2.3,1.7,4.6,3.5,7,5.8c1.2,1.2,2.3,2.9,2.9,3.5c0.6,2.3,1.2,4.1,2.3,6.4c0.6,1.2-0.6,1.2-1.7,0
		c-2.3-1.7-4.6-3.5-7-5.2c-1.2-0.6-2.3-2.3-2.9-3.5c-0.6-2.3-1.2-4.1-2.3-6.4C280.5,88.1,281,87.5,282.2,88.7"/>
	<path class="st0" d="M296.7,100.8c2.9,2.3,5.8,5.8,8.7,9.3c1.7,1.7,9.3,23.2,9.3,23.2s-4.6-12.2-6.4-13.9c-2.9-3.5-5.8-6.4-8.1-8.7
		c-1.2-1.2-2.3-2.9-2.9-4.1c-0.6-1.7-1.2-4.1-1.7-5.8C294.4,99.1,295.5,99.7,296.7,100.8"/>
	<path class="st0" d="M273.5,92.7c2.3,1.2,4.1,2.9,6.4,4.1c1.2,0.6,2.3,2.3,2.9,3.5c0.6,2.3,1.2,4.1,2.3,6.4c0.6,1.2,0,1.2-1.2,0.6
		c-2.3-1.2-4.6-2.9-6.4-4.1c-1.2-0.6-2.3-1.7-2.3-2.9c-0.6-2.3-1.2-4.1-2.3-6.4C271.8,92.7,272.4,92.1,273.5,92.7"/>
	<path class="st0" d="M286.8,101.4c2.3,1.7,4.6,3.5,7,5.2c1.2,1.2,2.3,2.9,2.9,3.5c0.6,2.3,1.2,4.1,2.3,6.4c0.6,1.2-0.6,1.2-1.7,0
		c-2.3-1.7-4.6-3.5-7-5.2c-1.2-0.6-2.3-2.3-2.9-3.5c-0.6-2.3-1.2-4.1-2.3-6.4C284.5,100.8,285.7,100.2,286.8,101.4"/>
	<path class="st0" d="M300.7,112.4c2.9,2.3,5.2,5.2,8.1,8.7c1.2,1.7,5.2,11.6,5.2,11.6s-1.2-1.2-2.3-2.9c-2.9-2.9-5.2-5.8-8.1-8.1
		c-1.2-1.2-2.3-2.9-2.9-3.5c-0.6-1.7-1.2-4.1-1.7-5.8C298.4,111.3,299.6,111.3,300.7,112.4"/>
	<path class="st0" d="M285.1,263.6c1.7-1.7,3.5-2.9,5.2-4.6c0.6-0.6,0.6-1.7,0-2.3c-1.7-1.7-2.9-3.5-4.6-4.6c-0.6-0.6-1.2-0.6-2.3,0
		c-1.7,1.7-3.5,2.9-5.2,4.1c-0.6,0.6-0.6,1.2,0,1.7c1.7,1.7,2.9,3.5,4.6,5.2C283.9,264.2,284.5,264.2,285.1,263.6 M269.5,228.3
		c1.7-1.7,3.5-2.9,5.2-4.6c0.6-0.6,0.6-1.7,0-2.3c-1.2-1.7-2.9-2.9-4.1-4.6c-0.6-0.6-1.2-0.6-1.7,0c-1.7,1.2-3.5,2.9-5.2,4.1
		c-0.6,0.6-0.6,1.2,0,1.7c1.7,1.7,2.9,3.5,4.6,4.6C268.3,228.9,268.9,228.9,269.5,228.3z M278.7,219.6c1.7-1.7,2.9-3.5,4.6-4.6
		c0.6-0.6,0.6-1.7,0-2.3c-1.2-1.7-2.9-2.9-4.1-4.6c-0.6-0.6-1.2-0.6-1.7,0c-1.7,1.7-2.9,2.9-4.6,4.6c-0.6,0.6-0.6,1.2,0,1.7
		c1.2,1.7,2.9,2.9,4.1,4.6C277.6,220.2,278.2,220.2,278.7,219.6z M287.4,210.3c1.7-1.7,2.9-3.5,4.1-5.2c0.6-0.6,0.6-1.7,0-2.3
		c-1.2-1.2-2.3-2.9-4.1-4.1c-0.6-0.6-1.2-0.6-1.7,0c-1.7,1.7-2.9,3.5-4.6,5.2c-0.6,0.6-0.6,1.7,0,2.3c1.2,1.7,2.9,2.9,4.1,4.6
		C286.3,211.5,286.8,210.9,287.4,210.3z M295.5,200.5c1.2-1.7,2.3-3.5,4.1-5.8c0.6-0.6,0.6-1.7,0-2.3c-1.2-1.2-2.3-2.3-3.5-4.1
		c-0.6-0.6-1.2-0.6-1.7,0.6c-1.2,1.7-2.9,3.5-4.1,5.2c-0.6,0.6-0.6,1.7,0,2.3c1.2,1.2,2.3,2.9,4.1,4.1
		C293.8,201.6,295,201.6,295.5,200.5z M302.5,190c1.2-1.7,2.3-4.1,3.5-6.4c0.6-0.6,0.6-1.7,0-2.3c-1.2-1.2-2.3-2.3-2.9-3.5
		c-0.6-0.6-1.2,0-1.7,0.6c-1.2,1.7-2.3,4.1-4.1,5.8c-0.6,0.6-0.6,1.7,0,2.3c1.2,1.2,2.3,2.3,3.5,4.1
		C301.3,191.2,301.9,190.6,302.5,190z M308.9,178.5c1.2-2.3,1.7-4.6,2.9-7c0.6-0.6,0-1.7,0-2.3c-1.2-1.2-1.7-1.7-2.9-2.9
		c-0.6-0.6-0.6,0-1.2,0.6c-1.2,2.3-2.3,4.1-3.5,6.4c-0.6,0.6-0.6,1.7,0,2.3c1.2,1.2,2.3,2.3,2.9,3.5
		C307.7,179.6,308.3,179,308.9,178.5z M313.5,165.1c0.6-2.3,1.2-5.2,1.7-8.1c0-1.2,0-2.3,0-2.3c-0.6-0.6-1.2-1.2-1.7-1.7
		c0,0-0.6,0.6-0.6,1.2c-0.6,2.3-1.7,4.6-2.3,7c-0.6,0.6-0.6,1.7,0,2.3c0.6,1.2,1.7,1.7,2.3,2.9C312.9,166.3,313.5,166.3,313.5,165.1
		z M286.8,228.3c1.7-1.7,2.9-3.5,4.6-5.2c0.6-0.6,0.6-1.7,0-2.3c-1.2-1.7-2.9-2.9-4.1-4.6c-0.6-0.6-1.2-0.6-1.7,0
		c-1.7,1.7-2.9,3.5-4.6,4.6c-0.6,0.6-0.6,1.7,0,2.3c1.2,1.7,2.9,2.9,4.1,4.6C285.7,228.9,286.3,228.9,286.8,228.3z M295,219
		c1.2-1.7,2.9-3.5,4.1-5.2c0.6-0.6,0.6-1.7,0-2.3c-1.2-1.2-2.9-2.9-4.1-4.1c-0.6-0.6-1.2-0.6-1.7,0c-1.2,1.7-2.9,3.5-4.1,5.2
		c-0.6,0.6-0.6,1.7,0,2.3c1.2,1.7,2.9,2.9,4.1,4.6C293.8,219.6,294.4,219.6,295,219z M302.5,208.6c1.2-1.7,2.3-4.1,3.5-5.8
		c0.6-0.6,0.6-1.7,0-2.3c-1.2-1.2-2.3-2.3-3.5-4.1c-0.6-0.6-1.2,0-1.7,0.6c-1.2,1.7-2.3,4.1-4.1,5.8c-0.6,0.6-0.6,1.7,0,2.3
		c1.2,1.2,2.3,2.9,4.1,4.1C301.3,209.2,301.9,209.2,302.5,208.6z M308.9,197c1.2-2.3,2.3-4.1,2.9-6.4c0.6-0.6,0.6-1.7,0-2.3
		c-1.2-1.2-2.3-2.3-2.9-3.5c-0.6-0.6-1.2,0-1.2,0.6c-1.2,2.3-2.3,4.1-3.5,6.4c-0.6,0.6-0.6,1.7,0,2.3c1.2,1.2,2.3,2.3,3.5,4.1
		C307.7,198.1,308.3,197.6,308.9,197z M314.1,184.2c0.6-2.3,1.7-4.6,2.3-7.5c0-1.2,0-1.7,0-2.3c-1.2-1.2-1.7-1.7-2.9-2.9
		c-0.6-0.6-0.6,0-1.2,1.2c-0.6,2.3-1.7,4.6-2.9,7c-0.6,0.6-0.6,1.7,0,2.3c1.2,1.2,2.3,2.3,2.9,3.5
		C313.5,185.4,314.1,185.4,314.1,184.2z M318.1,169.8c0.6-2.9,0.6-5.8,0.6-8.7c0-1.2,0-2.3-0.6-2.3c-0.6-0.6-1.2-1.2-1.7-1.7
		c0,0-0.6,0.6-0.6,1.7c-0.6,2.9-1.2,5.8-1.7,8.1c0,1.2,0,1.7,0,2.3c0.6,1.2,1.7,1.7,2.3,2.9C317.5,171.5,317.5,170.9,318.1,169.8z
		 M286.3,246.2c1.7-1.7,3.5-2.9,4.6-4.6c0.6-0.6,0.6-1.7,0-2.3c-1.2-1.7-2.9-2.9-4.1-4.6c-0.6-0.6-1.2-0.6-1.7,0
		c-1.7,1.7-3.5,2.9-4.6,4.6c-0.6,0.6-0.6,1.2,0,1.7c1.7,1.7,2.9,3.5,4.6,4.6C284.5,246.2,285.7,246.8,286.3,246.2z M295,237
		c1.2-1.7,2.9-3.5,4.1-5.2c0.6-0.6,0.6-1.7,0-2.3c-1.2-1.7-2.9-2.9-4.1-4.6c-0.6-0.6-1.2-0.6-1.7,0c-1.7,1.7-2.9,3.5-4.6,5.2
		c-0.6,0.6-0.6,1.7,0,2.3c1.2,1.7,2.9,2.9,4.1,4.6C293.2,237.5,294.4,237.5,295,237z M302.5,227.1c1.2-1.7,2.9-3.5,4.1-5.8
		c0.6-0.6,0.6-1.7,0-2.3c-1.2-1.2-2.3-2.9-4.1-4.1c-0.6-0.6-1.2-0.6-1.7,0.6c-1.2,1.7-2.9,3.5-4.1,5.8c-0.6,0.6-0.6,1.7,0,2.3
		c1.2,1.7,2.9,2.9,4.1,4.6C301.3,227.7,301.9,227.7,302.5,227.1z M309.4,216.1c1.2-2.3,2.3-4.1,3.5-6.4c0.6-0.6,0.6-1.7,0-2.3
		c-1.2-1.2-2.3-2.3-3.5-4.1c-0.6-0.6-1.2,0-1.7,0.6c-1.2,2.3-2.3,4.1-3.5,5.8c-0.6,0.6-0.6,1.7,0,2.3c1.2,1.2,2.3,2.9,4.1,4.1
		C308.3,216.7,309.4,216.7,309.4,216.1z M315.2,203.9c1.2-2.3,1.7-4.6,2.3-7c0-1.2,0-1.7,0-2.3c-1.2-1.2-2.3-2.3-2.9-3.5
		c-0.6-0.6-1.2,0-1.2,0.6c-1.2,2.3-1.7,4.6-2.9,7c-0.6,0.6-0.6,1.7,0,2.3c1.2,1.2,2.3,2.3,3.5,3.5
		C314.6,205.1,315.2,204.5,315.2,203.9z M319.9,190c0.6-2.9,1.2-5.2,1.7-8.1c0-1.2,0-2.3-0.6-2.3c-0.6-1.2-1.7-1.7-2.9-2.9
		c-0.6-0.6-0.6,0-1.2,1.2c-0.6,2.9-1.2,5.2-2.3,7.5c0,1.2,0,1.7,0,2.3c1.2,1.2,2.3,2.3,2.9,3.5C319.3,191.8,319.9,191.2,319.9,190z
		 M322.2,174.4c0-2.9,0-6.4,0-9.8c0-1.2-0.6-2.3-0.6-2.9c-0.6-0.6-1.2-1.2-1.7-1.7c0,0-0.6,0.6-0.6,1.7c0,3.5-0.6,6.4-0.6,9.3
		c0,1.2,0,2.3,0.6,2.3c0.6,1.2,1.7,1.7,2.3,2.9C322.2,176.1,322.2,175.6,322.2,174.4z M294.4,254.9c1.7-1.7,2.9-3.5,4.6-5.2
		c0.6-0.6,0.6-1.7,0-2.3c-1.2-1.7-2.9-2.9-4.1-4.6c-0.6-0.6-1.2-0.6-1.7,0c-1.7,1.7-2.9,3.5-4.6,4.6c-0.6,0.6-0.6,1.7,0,2.3
		c1.7,1.7,2.9,3.5,4.6,4.6C293.2,255.5,293.8,255.5,294.4,254.9z M303.1,245.7c1.2-1.7,2.9-3.5,4.1-5.2c0.6-0.6,0.6-1.7,0-2.3
		c-1.2-1.7-2.9-2.9-4.1-4.6c-0.6-0.6-1.2-0.6-1.7,0c-1.2,1.7-2.9,3.5-4.1,5.2c-0.6,0.6-0.6,1.7,0,2.3c1.2,1.7,2.9,2.9,4.1,4.6
		C301.3,246.2,302.5,246.2,303.1,245.7z M317,223.6c1.2-2.3,1.7-4.6,2.9-7c0.6-0.6,0-1.7,0-2.3c-1.2-1.2-2.3-2.3-3.5-4.1
		c-0.6-0.6-1.2,0-1.7,0.6c-1.2,2.3-2.3,4.1-2.9,6.4c-0.6,0.6-0.6,1.7,0,2.3c1.2,1.2,2.3,2.9,4.1,4.1
		C315.8,224.8,316.4,224.2,317,223.6z M321.6,210.9c0.6-2.3,1.7-4.6,2.3-7.5c0-1.2,0-1.7,0-2.3c-1.2-1.2-2.3-2.3-2.9-3.5
		c-0.6-0.6-1.2,0-1.2,1.2c-0.6,2.3-1.7,4.6-2.3,7c-0.6,0.6,0,1.7,0,2.3c1.2,1.2,2.3,2.3,3.5,4.1C321,212.1,321.6,211.5,321.6,210.9z
		 M325.7,196.4c0.6-2.9,0.6-5.8,1.2-8.7c0-1.2,0-2.3-0.6-2.9c-1.2-1.2-1.7-1.7-2.9-2.9c-0.6-0.6-0.6,0-0.6,1.2
		c-0.6,2.9-1.2,5.8-1.7,8.1c0,1.2,0,2.3,0.6,2.3c1.2,1.2,2.3,2.3,2.9,3.5C325.1,198.1,325.1,197.6,325.7,196.4z M326.8,179.6
		c0-3.5-0.6-7-1.2-11c0-1.7-0.6-2.9-0.6-2.9c-0.6-0.6-1.2-1.2-1.7-1.7c0,0,0,0.6,0,1.7c0.6,3.5,0.6,7,0.6,10.4c0,1.2,0,2.3,0.6,2.9
		c0.6,1.2,1.7,1.7,2.3,2.9C326.8,181.3,326.8,180.8,326.8,179.6z M323.3,157c-1.7-4.6-3.5-10.4-7-17.4c-1.2-2.9-2.3-4.6-2.3-4.6
		s0,1.2,0,2.3c0,3.5,0,6.4-0.6,9.3c0,1.2,0,1.7,0,2.3c0.6,0.6,1.2,1.2,1.7,1.7c0,0,0.6-0.6,0.6-1.7c0-3.5-0.6-7-1.2-11
		c-0.6-1.7-0.6-2.9-0.6-2.9s0.6,1.2,0.6,2.9c1.2,4.1,1.2,8.1,1.7,11.6c0,1.2,0,2.3,0.6,2.3c0.6,0.6,1.2,1.2,1.7,1.7c0,0,0-0.6,0-2.3
		c-0.6-4.1-1.2-8.1-2.9-13.3c-0.6-1.7-1.2-3.5-1.2-3.5s0.6,1.7,1.2,3.5c1.7,5.2,2.9,9.8,3.5,13.3c0,1.2,0.6,2.3,0.6,2.9
		c0.6,0.6,1.2,1.2,1.7,1.7c0,0,0-0.6,0-2.3c-1.2-4.6-2.3-9.3-4.6-15.1c-1.2-2.3-1.7-4.1-1.7-4.1s1.2,1.7,1.7,4.1
		c2.3,5.8,4.1,11,5.2,15.6C322.8,155.9,322.8,157,323.3,157c0.6,0.6,1.2,1.2,1.7,1.7C323.9,159.9,323.9,158.8,323.3,157z
		 M268.3,245.1c1.7-1.2,3.5-2.9,5.2-4.1c0.6-0.6,0.6-1.2,0-1.7c-1.7-1.7-2.9-3.5-4.6-4.6c-0.6-0.6-1.7-0.6-2.3,0
		c-1.7,1.2-3.5,2.9-5.2,4.1c-0.6,0.6-0.6,1.2,0,1.7c1.7,1.7,2.9,3.5,4.6,5.2C266.6,245.1,267.7,245.7,268.3,245.1z"/>
	<path class="st0" d="M373.2,161.1l61.4-60.8h-52.1L347.1,135l-35.3-34.8h-7.5c0.6,1.7,1.7,4.1,2.9,6.4c3.5,9.3,7.5,22.6,11.6,38.8
		c11.6,13.3,16.8,31.3,15.6,53.9l12.2-12.2l37.7,37.7h52.1l-58.5-59.1L373.2,161.1"/>
	<path class="st0" d="M1150,224.2h-51l-27.8-33h-59.1v33h-38.2v-63.1h107.8c5.8,0,11-1.2,15.1-3.5s6.4-5.8,6.4-10.4s-1.7-8.7-5.8-11
		c-3.5-2.3-8.7-3.5-15.6-3.5H973.9l24.9-32.4h79.4c7,0,14.5,0.6,22,1.7c7.5,1.2,14.5,3.5,20.3,7c6.4,3.5,11,8.1,15.1,13.3
		c4.1,5.2,5.8,12.7,5.8,22c0,4.6-0.6,9.3-2.3,13.9c-1.7,4.1-3.5,8.1-6.4,11.6c-2.9,3.5-6.4,6.4-10.4,8.7c-4.1,2.3-8.7,4.1-13.3,5.2
		c2.3,1.7,4.6,3.5,7,6.4c2.3,2.3,5.8,5.8,10.4,10.4L1150,224.2 M816.9,224.2l23.2-31.9h31.3c3.5,0,7.5,0,11.6,0
		c4.1,0,7.5,0,10.4,0.6c-1.7-2.3-3.5-5.2-5.8-8.7s-4.6-6.4-6.4-9.3l-22-33l-57.9,82.3h-45.2l79.4-111.8c2.3-3.5,5.8-7,9.8-9.8
		c4.1-2.9,8.7-4.1,15.1-4.1c5.8,0,10.4,1.2,14.5,4.1c4.1,2.9,7,5.8,9.8,9.8l77,111.8H816.9z M752,192.9l-24.9,31.9H617.6v-124h38.2
		v92.1H752z M604.9,192.9l-24.3,31.9H461.2v-124h143.1l-24.9,32.4h-79.9v15.1h97.9l-22,28.4h-75.9v16.8h105.4V192.9z M111.3,224.2
		l23.2-31.9h30.7c3.5,0,7.5,0,11.6,0s7.5,0,10.4,0.6c-1.7-2.3-3.5-5.2-5.8-8.7s-4.6-6.4-6.4-9.3l-22-33l-57.9,82.3H49.3l79.4-111.8
		c2.3-3.5,5.8-7,9.8-9.8c4.1-2.9,8.7-4.1,15.1-4.1c5.8,0,10.4,1.2,14.5,4.1c4.1,2.9,7,5.8,9.8,9.8l77,111.8H111.3z"/>
</g>
</svg>
